<svg width="38" height="44" viewBox="0 0 38 44" fill="none" xmlns="http://www.w3.org/2000/svg">
<path d="M28.8823 10.4669C27.6467 10.4669 26.5251 9.95115 25.6317 9.11075C24.7382 8.27035 24.339 7.04795 24.282 5.84464C24.282 5.63454 24.282 5.42444 24.32 5.21434C23.7877 5.42444 23.2175 5.53904 22.6852 5.53904C21.4496 5.53904 20.328 5.02334 19.4346 4.18294C18.5411 3.34254 18.1419 2.12013 18.0849 0.916828C18.0849 0.744928 18.0849 0.573027 18.1039 0.420227C12.1349 0.783128 7.42053 5.74914 7.42053 11.823C7.42053 18.126 12.5151 23.2448 18.7882 23.2448C25.0614 23.2448 30.1559 18.126 30.1559 11.823C30.1559 11.3073 30.1179 10.7916 30.0609 10.295C29.6807 10.4096 29.2815 10.4669 28.8823 10.4669ZM18.8072 15.4329C16.8302 15.4329 15.2335 13.8285 15.2335 11.8421C15.2335 9.85565 16.8302 8.25125 18.8072 8.25125C20.7842 8.25125 22.381 9.85565 22.381 11.8421C22.381 13.8285 20.7842 15.4329 18.8072 15.4329Z" fill="#FF680A"/>
<path d="M18.8072 23.7032C12.287 23.7032 7.00232 18.3742 7.00232 11.842C7.00232 5.57721 11.8688 0.382001 18.0849 0C18.2179 0 18.332 0.0382001 18.427 0.1337C18.5221 0.229201 18.5601 0.362901 18.5411 0.477501C18.5221 0.630302 18.5221 0.764002 18.5221 0.916802C18.5601 1.6235 18.7502 2.97961 19.7197 3.85821C20.5941 4.66041 21.6207 5.09971 22.6662 5.09971C23.1414 5.09971 23.6547 5.00421 24.1489 4.81321C24.301 4.75591 24.4531 4.77501 24.5861 4.87051C24.7002 4.96601 24.7762 5.11881 24.7572 5.27161C24.7382 5.44351 24.7192 5.63451 24.7382 5.82551C24.7762 6.53222 24.9663 7.88832 25.9358 8.76692C26.8103 9.56913 27.8368 10.0084 28.8823 10.0084C29.2245 10.0084 29.5856 9.95113 29.9468 9.85563C30.0609 9.81743 30.194 9.83653 30.308 9.91293C30.4221 9.98933 30.4791 10.1039 30.4981 10.2185C30.5741 10.7533 30.6122 11.2881 30.6122 11.8038C30.6122 18.3742 25.3085 23.7032 18.8072 23.7032ZM17.6286 0.916802C12.1159 1.4898 7.87676 6.20752 7.87676 11.8229C7.87676 17.8776 12.7812 22.8055 18.8072 22.8055C24.8333 22.8055 29.7377 17.8776 29.7377 11.8229C29.7377 11.4982 29.7187 11.1544 29.6997 10.8297C29.4336 10.8679 29.1674 10.9061 28.9013 10.9061C27.6277 10.9061 26.392 10.3904 25.3465 9.43542C24.4531 8.61412 23.9208 7.33442 23.8638 5.86371C23.8638 5.84461 23.8638 5.84461 23.8638 5.82551C23.4646 5.92102 23.0844 5.97832 22.6852 5.97832C21.4115 5.97832 20.1759 5.46261 19.1304 4.50761C18.237 3.68631 17.7047 2.40661 17.6477 0.935902C17.6286 0.935902 17.6286 0.916802 17.6286 0.916802ZM18.8072 15.8721C16.5831 15.8721 14.7772 14.0576 14.7772 11.8229C14.7772 9.58823 16.5831 7.77372 18.8072 7.77372C21.0314 7.77372 22.8373 9.58823 22.8373 11.8229C22.8373 14.0576 21.0123 15.8721 18.8072 15.8721ZM18.8072 8.67142C17.0774 8.67142 15.6707 10.0848 15.6707 11.8229C15.6707 13.561 17.0774 14.9744 18.8072 14.9744C20.5371 14.9744 21.9438 13.561 21.9438 11.8229C21.9438 10.0848 20.5371 8.67142 18.8072 8.67142Z" fill="#231F20"/>
<mask id="mask0" mask-type="alpha" maskUnits="userSpaceOnUse" x="7" y="0" width="24" height="24">
<path d="M28.8823 10.4668C27.6467 10.4668 26.5251 9.95109 25.6317 9.11069C24.7382 8.27029 24.339 7.04788 24.282 5.84458C24.282 5.63448 24.282 5.42438 24.32 5.21428C23.7877 5.42438 23.2175 5.53898 22.6852 5.53898C21.4496 5.53898 20.328 5.02328 19.4346 4.18288C18.5411 3.34247 18.1419 2.12007 18.0849 0.916767C18.0849 0.744867 18.0849 0.572966 18.1039 0.420166C12.1349 0.783067 7.42053 5.74908 7.42053 11.8229C7.42053 18.1259 12.5151 23.2447 18.7882 23.2447C25.0614 23.2447 30.1559 18.1259 30.1559 11.8229C30.1559 11.3072 30.1179 10.7915 30.0609 10.2949C29.6807 10.4095 29.2815 10.4668 28.8823 10.4668ZM18.8072 15.4328C16.8302 15.4328 15.2335 13.8284 15.2335 11.842C15.2335 9.85559 16.8302 8.25119 18.8072 8.25119C20.7842 8.25119 22.381 9.85559 22.381 11.842C22.381 13.8284 20.7842 15.4328 18.8072 15.4328Z" fill="#FF680A"/>
</mask>
<g mask="url(#mask0)">
<path d="M31.9429 18.6799C31.9429 17.744 31.3155 16.98 30.5171 16.98H30.4031C29.6237 16.98 28.9774 17.744 28.9774 18.6799C28.9774 19.6158 28.3501 20.3798 27.5517 20.3798H27.4756C26.6962 20.3798 26.0499 19.6158 26.0499 18.6799C26.0499 17.744 25.4226 16.98 24.6242 16.98H24.5101C23.7307 16.98 23.0844 17.744 23.0844 18.6799C23.0844 19.6158 22.4571 20.3798 21.6587 20.3798H21.5827C20.8033 20.3798 20.1569 19.6158 20.1569 18.6799C20.1569 17.744 19.5296 16.98 18.7312 16.98H18.6172C17.8378 16.98 17.1915 17.744 17.1915 18.6799C17.1915 19.6158 16.5641 20.3798 15.7657 20.3798H15.6897C14.9103 20.3798 14.264 19.6158 14.264 18.6799C14.264 17.744 13.6367 16.98 12.8383 16.98H12.7242C11.9448 16.98 11.2985 17.744 11.2985 18.6799C11.2985 19.6158 10.6712 20.3798 9.87279 20.3798H9.79675C9.01736 20.3798 8.37104 19.6158 8.37104 18.6799C8.37104 17.744 7.74372 16.98 6.94532 16.98H7.00235C6.22296 16.98 5.57664 17.744 5.57664 18.6799C5.57664 19.6158 4.94932 20.3798 4.15092 20.3798H4.07489C3.29549 20.3798 2.64917 21.1438 2.64917 22.0797V27.5423C2.64917 28.4782 3.27648 29.2422 4.07489 29.2422H4.18894C4.96833 29.2422 5.61466 28.4782 5.61466 27.5423C5.61466 26.6064 6.24197 25.8424 7.04037 25.8424H7.11641C7.8958 25.8424 8.54212 26.6064 8.54212 27.5423C8.54212 28.4782 9.16944 29.2422 9.96784 29.2422H10.0439C10.8233 29.2422 11.4696 28.4782 11.4696 27.5423C11.4696 26.6064 12.0969 25.8424 12.8953 25.8424H12.9713C13.7507 25.8424 14.3971 26.6064 14.3971 27.5423C14.3971 28.4782 15.0244 29.2422 15.8228 29.2422H15.9368C16.7162 29.2422 17.3625 28.4782 17.3625 27.5423C17.3625 26.6064 17.9899 25.8424 18.7883 25.8424C19.5677 25.8424 20.214 26.6064 20.214 27.5423C20.214 28.4782 20.8413 29.2422 21.6397 29.2422H21.7538C22.5331 29.2422 23.1795 28.4782 23.1795 27.5423C23.1795 26.6064 23.8068 25.8424 24.6052 25.8424H24.6812C25.4606 25.8424 26.1069 26.6064 26.1069 27.5423C26.1069 28.4782 26.7342 29.2422 27.5326 29.2422H27.6467C28.4261 29.2422 29.0724 28.4782 29.0724 27.5423C29.0724 26.6064 29.6997 25.8424 30.4981 25.8424H30.5742C31.3536 25.8424 31.9999 26.6064 31.9999 27.5423C31.9999 28.4782 32.6272 29.2422 33.4256 29.2422H33.5397C34.3191 29.2422 34.9654 28.4782 34.9654 27.5423V22.0797C34.9654 21.1438 34.3381 20.3798 33.5397 20.3798H33.4446C32.5702 20.3798 31.9429 19.6158 31.9429 18.6799Z" fill="#F9D19D"/>
<path d="M33.4446 29.6242H33.3306C32.3231 29.6242 31.5057 28.6883 31.5057 27.5232C31.5057 26.8165 31.0494 26.2435 30.4982 26.2435H30.4221C29.8708 26.2435 29.4146 26.8165 29.4146 27.5232C29.4146 28.6883 28.5972 29.6242 27.5897 29.6242H27.4756C26.4681 29.6242 25.6507 28.6883 25.6507 27.5232C25.6507 26.8165 25.1945 26.2435 24.6432 26.2435H24.5672C24.0159 26.2435 23.5597 26.8165 23.5597 27.5232C23.5597 28.6883 22.7423 29.6242 21.7348 29.6242H21.6397C20.6322 29.6242 19.8148 28.6883 19.8148 27.5232C19.8148 26.8165 19.3586 26.2435 18.8073 26.2435H18.7313C18.18 26.2435 17.7238 26.8165 17.7238 27.5232C17.7238 28.6883 16.9064 29.6242 15.8988 29.6242H15.7848C14.7773 29.6242 13.9599 28.6883 13.9599 27.5232C13.9599 26.8165 13.5036 26.2435 12.9524 26.2435H12.8763C12.3251 26.2435 11.8688 26.8165 11.8688 27.5232C11.8688 28.6883 11.0514 29.6242 10.0439 29.6242H9.92985C8.92235 29.6242 8.10494 28.6883 8.10494 27.5232C8.10494 26.8165 7.64871 26.2435 7.09743 26.2435H7.02139C6.47012 26.2435 6.01389 26.8165 6.01389 27.5232C6.01389 28.6883 5.19648 29.6242 4.18897 29.6242H4.07492C3.06741 29.6242 2.25 28.6883 2.25 27.5232V22.0606C2.25 20.8955 3.06741 19.9596 4.07492 19.9596H4.16996C4.72124 19.9596 5.17747 19.3866 5.17747 18.6799C5.17747 17.5148 5.99488 16.5789 7.00238 16.5789H7.11644C8.12395 16.5789 8.94136 17.5148 8.94136 18.6799C8.94136 19.3866 9.39758 19.9596 9.94886 19.9596H10.0249C10.5762 19.9596 11.0324 19.3866 11.0324 18.6799C11.0324 17.5148 11.8498 16.5789 12.8573 16.5789H12.9714C13.9789 16.5789 14.7963 17.5148 14.7963 18.6799C14.7963 19.3866 15.2525 19.9596 15.8038 19.9596H15.8798C16.4311 19.9596 16.8873 19.3866 16.8873 18.6799C16.8873 17.5148 17.7047 16.5789 18.7123 16.5789H18.8263C19.8338 16.5789 20.6512 17.5148 20.6512 18.6799C20.6512 19.3866 21.1075 19.9596 21.6587 19.9596H21.7348C22.286 19.9596 22.7423 19.3866 22.7423 18.6799C22.7423 17.5148 23.5597 16.5789 24.5672 16.5789H24.6812C25.6888 16.5789 26.5062 17.5148 26.5062 18.6799C26.5062 19.3866 26.9624 19.9596 27.5137 19.9596H27.5897C28.141 19.9596 28.5972 19.3866 28.5972 18.6799C28.5972 17.5148 29.4146 16.5789 30.4221 16.5789H30.5362C31.5437 16.5789 32.3611 17.5148 32.3611 18.6799C32.3611 19.3866 32.8173 19.9596 33.3686 19.9596H33.4637C34.4712 19.9596 35.2886 20.8955 35.2886 22.0606V27.5232C35.2696 28.6883 34.4521 29.6242 33.4446 29.6242ZM30.4411 25.4222H30.5172C31.5247 25.4222 32.3421 26.3581 32.3421 27.5232C32.3421 28.2299 32.7983 28.8029 33.3496 28.8029H33.4637C34.0149 28.8029 34.4712 28.2299 34.4712 27.5232V22.0606C34.4712 21.3539 34.0149 20.7809 33.4637 20.7809H33.3686C32.3611 20.7809 31.5437 19.845 31.5437 18.6799C31.5437 17.9732 31.0875 17.4002 30.5362 17.4002H30.4221C29.8708 17.4002 29.4146 17.9732 29.4146 18.6799C29.4146 19.845 28.5972 20.7809 27.5897 20.7809H27.5137C26.5062 20.7809 25.6888 19.845 25.6888 18.6799C25.6888 17.9732 25.2325 17.4002 24.6812 17.4002H24.5672C24.0159 17.4002 23.5597 17.9732 23.5597 18.6799C23.5597 19.845 22.7423 20.7809 21.7348 20.7809H21.6587C20.6512 20.7809 19.8338 19.845 19.8338 18.6799C19.8338 17.9732 19.3776 17.4002 18.8263 17.4002H18.7123C18.161 17.4002 17.7048 17.9732 17.7048 18.6799C17.7048 19.845 16.8873 20.7809 15.8798 20.7809H15.8038C14.7963 20.7809 13.9789 19.845 13.9789 18.6799C13.9789 17.9732 13.5227 17.4002 12.9714 17.4002H12.8573C12.306 17.4002 11.8498 17.9732 11.8498 18.6799C11.8498 19.845 11.0324 20.7809 10.0249 20.7809H9.94886C8.94136 20.7809 8.12395 19.845 8.12395 18.6799C8.12395 17.9732 7.66772 17.4002 7.11644 17.4002H7.00238C6.45111 17.4002 5.99488 17.9732 5.99488 18.6799C5.99488 19.845 5.17747 20.7809 4.16996 20.7809H4.07492C3.52364 20.7809 3.06741 21.3539 3.06741 22.0606V27.5232C3.06741 28.2299 3.52364 28.8029 4.07492 28.8029H4.18897C4.74025 28.8029 5.19648 28.2299 5.19648 27.5232C5.19648 26.3581 6.01389 25.4222 7.02139 25.4222H7.09743C8.10494 25.4222 8.92235 26.3581 8.92235 27.5232C8.92235 28.2299 9.37857 28.8029 9.92985 28.8029H10.0439C10.5952 28.8029 11.0514 28.2299 11.0514 27.5232C11.0514 26.3581 11.8688 25.4222 12.8763 25.4222H12.9524C13.9599 25.4222 14.7773 26.3581 14.7773 27.5232C14.7773 28.2299 15.2335 28.8029 15.7848 28.8029H15.8988C16.4501 28.8029 16.9063 28.2299 16.9063 27.5232C16.9063 26.3581 17.7238 25.4222 18.7313 25.4222H18.7883C19.7958 25.4222 20.6132 26.3581 20.6132 27.5232C20.6132 28.2299 21.0694 28.8029 21.6207 28.8029H21.7348C22.286 28.8029 22.7423 28.2299 22.7423 27.5232C22.7423 26.3581 23.5597 25.4222 24.5672 25.4222H24.6432C25.6507 25.4222 26.4681 26.3581 26.4681 27.5232C26.4681 28.2299 26.9244 28.8029 27.4756 28.8029H27.5897C28.141 28.8029 28.5972 28.2299 28.5972 27.5232C28.6162 26.3772 29.4336 25.4222 30.4411 25.4222Z" fill="#231F20"/>
</g>
<path d="M10.329 13.7139C10.0249 13.8094 9.68271 13.6566 9.58766 13.3319L9.09341 11.8612C8.99837 11.5556 9.15044 11.2118 9.4736 11.1163C9.77776 11.0208 10.1199 11.1736 10.215 11.4983L10.7092 12.969C10.8043 13.2555 10.6332 13.5993 10.329 13.7139Z" fill="white"/>
<path d="M11.3936 7.96472C11.5646 7.67822 11.9258 7.58272 12.211 7.75462L13.5416 8.53772C13.8268 8.70962 13.9218 9.07252 13.7507 9.35902C13.5797 9.64552 13.2185 9.74102 12.9333 9.56912L11.6027 8.78602C11.3175 8.61412 11.2225 8.25122 11.3936 7.96472Z" fill="white"/>
<path d="M13.9978 5.23344C13.6937 5.11884 13.5416 4.77504 13.6557 4.46944L14.1879 3.01784C14.302 2.71224 14.6442 2.55944 14.9483 2.67404C15.2525 2.78864 15.4045 3.13244 15.2905 3.43804L14.7582 4.88964C14.6442 5.19524 14.302 5.34804 13.9978 5.23344Z" fill="white"/>
<path d="M16.5261 5.6727C16.5071 5.348 16.7352 5.0615 17.0584 5.0233L18.5982 4.8896C18.9213 4.8705 19.2065 5.0997 19.2445 5.4244C19.2635 5.7491 19.0354 6.0356 18.7122 6.0738L17.1725 6.2075C16.8493 6.2457 16.5641 5.9974 16.5261 5.6727Z" fill="white"/>
<path d="M12.1729 14.7071C12.211 14.3824 12.4961 14.1532 12.8193 14.1723L14.359 14.3442C14.6822 14.3824 14.9103 14.6689 14.8913 14.9936C14.8533 15.3183 14.5681 15.5475 14.245 15.5284L12.7052 15.3565C12.382 15.3183 12.1349 15.0318 12.1729 14.7071Z" fill="white"/>
<path d="M23.9588 6.7614C23.9588 6.7423 23.9398 6.7232 23.9398 6.685C23.9208 6.5704 23.9018 6.4749 23.8828 6.3603C23.8828 6.3221 23.8828 6.2839 23.8828 6.2266C23.7307 6.0738 23.4836 5.9974 23.2555 6.0738C22.9513 6.1884 22.7803 6.5131 22.8943 6.8378L23.4076 8.3085C23.5216 8.6141 23.8448 8.786 24.1679 8.6714C24.32 8.6141 24.4341 8.4995 24.5101 8.3658C24.225 7.9074 24.0919 7.3917 23.9969 6.876C23.9588 6.8187 23.9588 6.7996 23.9588 6.7614Z" fill="white"/>
<path d="M25.4606 12.9498C25.7077 12.7397 26.0689 12.7588 26.297 12.988L27.3235 14.134C27.5326 14.3823 27.5136 14.7452 27.2855 14.9744C27.0384 15.1845 26.6772 15.1654 26.4491 14.9362L25.4225 13.7902C25.1944 13.561 25.2134 13.179 25.4606 12.9498Z" fill="white"/>
<path d="M22.9514 14.7452C23.2365 14.9171 23.3125 15.28 23.1605 15.5665L22.3621 16.8844C22.191 17.1709 21.8298 17.2473 21.5447 17.0945C21.2595 16.9226 21.1835 16.5597 21.3355 16.2732L22.1339 14.9553C22.305 14.6688 22.6662 14.5733 22.9514 14.7452Z" fill="white"/>
<path d="M29.6811 10.3909C29.7381 10.8684 29.7761 11.3459 29.7761 11.8425C29.7761 17.9163 24.8527 22.8632 18.8076 22.8632C12.7626 22.8632 7.83914 17.9163 7.83914 11.8425C7.83914 6.01695 12.3634 1.22283 18.0853 0.840834C18.0853 0.554333 18.1043 0.286932 18.1613 0.0195312C11.9642 0.344232 7.02173 5.52035 7.02173 11.8234C7.02173 18.3556 12.3064 23.6463 18.7886 23.6463C25.2899 23.6654 30.5745 18.3556 30.5745 11.8234C30.5745 11.2504 30.5365 10.6965 30.4605 10.1617C30.1943 10.2572 29.9472 10.3336 29.6811 10.3909Z" fill="#231F20"/>
<path d="M14.8152 11.823C14.8152 14.0386 16.6021 15.834 18.8072 15.834C21.0123 15.834 22.7992 14.0386 22.7992 11.823C22.7992 9.60736 21.0123 7.81195 18.8072 7.81195C16.6021 7.83105 14.8152 9.62646 14.8152 11.823ZM18.8072 8.63325C20.5561 8.63325 21.9818 10.0658 21.9818 11.823C21.9818 13.5802 20.5561 15.0127 18.8072 15.0127C17.0583 15.0127 15.6326 13.5802 15.6326 11.823C15.6326 10.0658 17.0393 8.63325 18.8072 8.63325Z" fill="#231F20"/>
<path d="M2.50085 34.1844V29.0274C2.50085 28.9128 2.53887 28.8364 2.61491 28.76C2.69095 28.6836 2.786 28.6454 2.88105 28.6454H3.66044C3.77449 28.6454 3.85053 28.6836 3.92657 28.76C4.00261 28.8364 4.04063 28.9319 4.04063 29.0274V33.3822H6.79701V29.0465C6.79701 28.9319 6.83503 28.8555 6.91107 28.7791C6.9871 28.7027 7.08215 28.6645 7.1772 28.6645H7.95659C8.05164 28.6645 8.14669 28.7027 8.22273 28.7791C8.29876 28.8555 8.33678 28.951 8.33678 29.0465V33.4013H8.774C8.88806 33.4013 8.9641 33.4395 9.04014 33.5159C9.11617 33.5923 9.15419 33.6878 9.15419 33.7833V34.1653C9.15419 34.2799 9.11617 34.3563 9.04014 34.4327C8.9641 34.5091 8.86905 34.5473 8.774 34.5473H2.86204C2.74798 34.5473 2.67194 34.5091 2.5959 34.4327C2.53887 34.3945 2.50085 34.299 2.50085 34.1844Z" fill="white"/>
<path d="M9.6864 34.3372V30.3262C9.6864 30.2498 9.70541 30.1925 9.76244 30.1352C9.81947 30.0779 9.8765 30.0588 9.93353 30.0588H10.789C10.865 30.0588 10.922 30.0779 10.9791 30.1352C11.0361 30.1925 11.0551 30.2498 11.0551 30.3262V33.0384L12.4998 30.3644C12.5378 30.288 12.6139 30.2116 12.7089 30.1543C12.804 30.097 12.88 30.0779 12.9751 30.0779H14.1346C14.2107 30.0779 14.2677 30.097 14.3247 30.1543C14.3818 30.2116 14.4008 30.2689 14.4008 30.3453V34.3563C14.4008 34.4327 14.3818 34.49 14.3247 34.5473C14.2677 34.5855 14.2107 34.6237 14.1346 34.6237H13.2792C13.2032 34.6237 13.1461 34.6046 13.0891 34.5473C13.0511 34.49 13.0131 34.4327 13.0131 34.3754V31.625L11.5683 34.2799C11.5303 34.3563 11.4543 34.4327 11.3592 34.49C11.2642 34.5473 11.1882 34.5855 11.0931 34.5855H9.93353C9.85749 34.5855 9.80046 34.5664 9.74343 34.5091C9.72442 34.4709 9.6864 34.3945 9.6864 34.3372Z" fill="white"/>
<path d="M14.952 30.8037V30.3071C14.952 30.2307 14.971 30.1734 15.0281 30.1161C15.0851 30.0588 15.1421 30.0397 15.2182 30.0397H19.2672C19.3432 30.0397 19.4003 30.0588 19.4573 30.1161C19.4953 30.1734 19.5333 30.2307 19.5333 30.3071V30.8037C19.5333 30.8801 19.5143 30.9374 19.4573 30.9756C19.4193 31.0329 19.3432 31.052 19.2672 31.052H17.9555V34.3181C17.9555 34.3945 17.9365 34.4518 17.8795 34.49C17.8225 34.5473 17.7654 34.5664 17.6894 34.5664H16.7769C16.7009 34.5664 16.6439 34.5473 16.5868 34.49C16.5298 34.4327 16.5108 34.3754 16.5108 34.3181V31.052H15.1992C15.1231 31.052 15.0661 31.0329 15.0091 30.9756C14.99 30.9374 14.952 30.8801 14.952 30.8037Z" fill="white"/>
<path d="M20.1036 35.7124V30.3071C20.1036 30.2307 20.1227 30.1734 20.1797 30.1161C20.2367 30.0588 20.2937 30.0397 20.3508 30.0397H21.1492C21.2252 30.0397 21.2822 30.0588 21.3203 30.1161C21.3773 30.1734 21.3963 30.2307 21.3963 30.3071V30.4217C21.8335 30.1161 22.3278 29.9633 22.898 29.9633C23.4683 29.9633 23.9436 30.1734 24.3238 30.5745C24.7039 30.9756 24.894 31.5677 24.894 32.3126C24.894 33.0575 24.7039 33.6496 24.3047 34.0507C23.9055 34.4518 23.3733 34.6619 22.6889 34.6619C22.3468 34.6619 21.9476 34.5855 21.5103 34.4518V35.7124C21.5103 35.7888 21.4913 35.8461 21.4343 35.9034C21.3773 35.9607 21.3202 35.9798 21.2632 35.9798H20.3508C20.2747 35.9798 20.2177 35.9607 20.1797 35.9034C20.1227 35.8461 20.1036 35.7888 20.1036 35.7124ZM21.5294 33.4968C21.8905 33.6114 22.1757 33.6687 22.4228 33.6687C22.803 33.6687 23.0691 33.5541 23.2212 33.344C23.3733 33.1339 23.4493 32.7901 23.4493 32.3126C23.4493 31.8351 23.3733 31.4913 23.2212 31.2812C23.0691 31.0711 22.841 30.9565 22.5559 30.9565C22.2707 30.9565 21.9095 31.0711 21.5294 31.3194V33.4968Z" fill="white"/>
<path d="M26.4718 35.0057L27.0041 35.0821C27.3843 35.0821 27.6694 34.7956 27.8215 34.2226C27.3653 34.2226 26.9661 34.0889 26.6619 33.8024C26.3578 33.5159 26.0726 33.0193 25.8635 32.2935L25.2552 30.3071C25.2552 30.288 25.2362 30.2689 25.2362 30.2307C25.2362 30.1925 25.2552 30.1734 25.2932 30.1161C25.3313 30.0779 25.3883 30.0588 25.4453 30.0588H26.3007C26.3768 30.0588 26.4528 30.0779 26.5289 30.1352C26.6049 30.1925 26.6429 30.2498 26.6619 30.3262L27.1942 32.0834C27.3273 32.5036 27.4603 32.8092 27.6124 32.9811C27.7455 33.153 27.9166 33.2294 28.1066 33.2294L28.9241 30.3453C28.9431 30.2689 28.9811 30.1925 29.0571 30.1543C29.1142 30.097 29.1902 30.0779 29.2662 30.0779H30.1407C30.2167 30.0779 30.2547 30.097 30.2927 30.1352C30.3308 30.1734 30.3498 30.2116 30.3498 30.2498C30.3498 30.288 30.3498 30.3071 30.3498 30.3262L29.2662 34.1844C29.0761 34.872 28.829 35.3495 28.5629 35.6551C28.2777 35.9416 27.9166 36.0944 27.4603 36.0944C27.0231 36.0944 26.6999 36.0753 26.5098 36.0371C26.3198 35.9989 26.2057 35.9607 26.1677 35.9225C26.1297 35.8652 26.0916 35.827 26.0916 35.7506V35.2922C26.0916 35.2158 26.1106 35.1585 26.1677 35.1012C26.2057 35.0439 26.2817 35.0248 26.3578 35.0248H26.4718V35.0057Z" fill="white"/>
<path d="M33.0872 34.6619C32.3268 34.6619 31.7185 34.4709 31.3003 34.0698C30.882 33.6687 30.6539 33.0957 30.6539 32.3126C30.6539 31.5486 30.863 30.9565 31.2812 30.5554C31.6995 30.1543 32.2888 29.9633 33.0491 29.9633C33.8095 29.9633 34.3798 30.0779 34.798 30.3262C35.1972 30.5745 35.4063 30.9183 35.4063 31.3958C35.4063 31.4722 35.3873 31.5295 35.3303 31.5868C35.2733 31.625 35.2162 31.6632 35.1402 31.6632H34.5319C34.3418 31.6632 34.1897 31.5677 34.0566 31.3576C33.9046 31.0902 33.6004 30.9756 33.2012 30.9756C32.783 30.9756 32.4979 31.0902 32.3458 31.3003C32.1747 31.5104 32.0987 31.8542 32.0987 32.3317C32.0987 32.8092 32.1747 33.153 32.3458 33.3631C32.5169 33.5732 32.802 33.6878 33.2202 33.6878C33.6384 33.6878 33.9236 33.5541 34.0947 33.3058C34.2277 33.0957 34.3798 33.0002 34.5699 33.0002H35.1782C35.2542 33.0002 35.3113 33.0193 35.3683 33.0766C35.4253 33.1339 35.4443 33.1912 35.4443 33.2485C35.4443 33.726 35.2352 34.0889 34.836 34.3181C34.4368 34.5473 33.8475 34.6619 33.0872 34.6619Z" fill="white"/>
<path d="M0 43.5416V38.4037C0 38.2891 0.0380202 38.2127 0.114058 38.1363C0.190096 38.0599 0.285143 38.0217 0.380191 38.0217H5.72187C5.83593 38.0217 5.91196 38.0599 5.988 38.1363C6.06404 38.2127 6.10206 38.3082 6.10206 38.4037V43.5416C6.10206 43.6562 6.06404 43.7326 5.988 43.809C5.91196 43.8854 5.81692 43.9236 5.70286 43.9236H4.94248C4.82842 43.9236 4.75238 43.8854 4.67635 43.809C4.60031 43.7326 4.56229 43.6371 4.56229 43.5416V39.1868H1.55878V43.5416C1.55878 43.6562 1.52076 43.7326 1.44473 43.809C1.36869 43.8854 1.27364 43.9236 1.17859 43.9236H0.399201C0.285144 43.9236 0.209107 43.8854 0.133069 43.809C0.0380214 43.7517 0 43.6562 0 43.5416Z" fill="white"/>
<path d="M6.78638 43.6562L7.52775 40.6575C7.73685 39.8171 8.42119 39.416 9.58078 39.416H11.5198C11.5958 39.416 11.6528 39.4351 11.6908 39.4924C11.7479 39.5497 11.7669 39.607 11.7669 39.6834V43.6944C11.7669 43.7708 11.7479 43.8281 11.6908 43.8663C11.6338 43.9236 11.5768 43.9427 11.5198 43.9427H10.6073C10.5313 43.9427 10.4742 43.9236 10.4362 43.8663C10.3792 43.809 10.3602 43.7517 10.3602 43.6944V40.4092H9.59979C9.2196 40.4092 8.97247 40.6193 8.87743 41.0204L8.2311 43.6371C8.21209 43.7326 8.15506 43.809 8.07902 43.8663C8.00298 43.9236 7.92694 43.9427 7.85091 43.9427H7.01449C6.93845 43.9427 6.88142 43.9236 6.8434 43.8663C6.80538 43.8281 6.78638 43.7899 6.78638 43.7517C6.78638 43.7135 6.78638 43.6944 6.78638 43.6562Z" fill="white"/>
<path d="M12.7935 43.6944V39.6834C12.7935 39.607 12.8125 39.5497 12.8695 39.4924C12.9265 39.4351 12.9836 39.416 13.0406 39.416H13.953C14.0291 39.416 14.0861 39.4351 14.1241 39.4924C14.1812 39.5497 14.2002 39.607 14.2002 39.6834V41.1541H14.8085C14.8845 40.562 15.1316 40.1036 15.5498 39.798C15.968 39.4924 16.5193 39.3396 17.2227 39.3396C17.926 39.3396 18.4773 39.5306 18.8955 39.9317C19.3137 40.3328 19.5228 40.9058 19.5228 41.6698C19.5228 42.4338 19.3137 43.0068 18.8955 43.4079C18.4773 43.809 17.907 44 17.2037 44C16.5003 44 15.949 43.8472 15.5308 43.5225C15.1126 43.1978 14.8655 42.7394 14.8085 42.1282H14.2192V43.6753C14.2192 43.7517 14.2002 43.809 14.1431 43.8472C14.0861 43.9045 14.0291 43.9236 13.9721 43.9236H13.0596C12.9836 43.9236 12.9265 43.9045 12.8885 43.8472C12.8315 43.809 12.7935 43.7517 12.7935 43.6944ZM18.1161 41.6698C18.1161 40.7339 17.793 40.2564 17.1656 40.2564C16.5383 40.2564 16.2152 40.7339 16.2152 41.6698C16.2152 42.6057 16.5383 43.0832 17.1656 43.0832C17.793 43.0832 18.1161 42.6057 18.1161 41.6698Z" fill="white"/>
<path d="M20.3021 43.6944V39.6834C20.3021 39.607 20.3211 39.5497 20.3782 39.4924C20.4352 39.4351 20.4922 39.416 20.5493 39.416H21.4617C21.5377 39.416 21.5948 39.4351 21.6328 39.4924C21.6898 39.5497 21.7088 39.607 21.7088 39.6834V42.9495H23.0015V39.6643C23.0015 39.5879 23.0205 39.5306 23.0775 39.4733C23.1345 39.416 23.1916 39.3969 23.2676 39.3969H24.1801C24.2561 39.3969 24.3131 39.416 24.3702 39.4733C24.4082 39.5306 24.4462 39.5879 24.4462 39.6643V42.9304H25.7389V39.6643C25.7389 39.5879 25.7579 39.5306 25.8149 39.4733C25.8719 39.416 25.9289 39.3969 25.986 39.3969H26.8984C26.9745 39.3969 27.0315 39.416 27.0885 39.4733C27.1456 39.5306 27.1646 39.5879 27.1646 39.6643V43.6753C27.1646 43.7517 27.1456 43.809 27.0885 43.8472C27.0315 43.9045 26.9745 43.9236 26.8984 43.9236H20.5683C20.4922 43.9236 20.4352 43.9045 20.3972 43.8472C20.3211 43.809 20.3021 43.7517 20.3021 43.6944Z" fill="white"/>
<path d="M32.6964 43.7517C32.6964 43.8663 32.6204 43.9427 32.4873 43.9427H31.7079C31.4418 43.9427 31.2327 43.809 31.0806 43.5607L30.5673 42.7012C30.3392 42.3383 30.016 42.1473 29.5978 42.1473V43.6944C29.5978 43.7708 29.5788 43.8281 29.5218 43.8854C29.4648 43.9236 29.4077 43.9618 29.3507 43.9618H28.4382C28.3622 43.9618 28.3052 43.9427 28.2482 43.8854C28.2101 43.8472 28.1721 43.7708 28.1721 43.6944V39.6834C28.1721 39.607 28.1911 39.5497 28.2482 39.4924C28.3052 39.4351 28.3622 39.416 28.4192 39.416H29.3317C29.4077 39.416 29.4648 39.4351 29.5218 39.4924C29.5598 39.5497 29.5978 39.607 29.5978 39.6834V41.2114C30.0731 41.2114 30.3962 41.0204 30.5673 40.6575L30.9665 39.8171C31.0236 39.7025 31.0996 39.607 31.2136 39.5306C31.3277 39.4542 31.4418 39.416 31.5558 39.416H32.3352C32.4683 39.416 32.5443 39.4733 32.5443 39.5688C32.5443 39.6261 32.5253 39.7025 32.4873 39.798L31.955 40.9249C31.86 41.1159 31.7459 41.2687 31.5938 41.4024C31.4418 41.5361 31.2707 41.6316 31.0806 41.6698C31.4227 41.7653 31.7079 42.0136 31.955 42.4147L32.6584 43.5416C32.6584 43.6371 32.6964 43.6944 32.6964 43.7517Z" fill="white"/>
<path d="M33.2856 43.6944V39.6834C33.2856 39.607 33.3047 39.5497 33.3617 39.4924C33.4187 39.4351 33.4757 39.416 33.5328 39.416H34.3882C34.4642 39.416 34.5213 39.4351 34.5783 39.4924C34.6353 39.5497 34.6543 39.607 34.6543 39.6834V42.3956L36.0991 39.7216C36.1371 39.6452 36.2131 39.5688 36.3082 39.5115C36.4032 39.4542 36.4793 39.4351 36.5743 39.4351H37.7339C37.8099 39.4351 37.8669 39.4542 37.924 39.5115C37.981 39.5688 38 39.6261 38 39.7025V43.7135C38 43.7899 37.981 43.8472 37.924 43.9045C37.8669 43.9427 37.8099 43.9809 37.7339 43.9809H36.8784C36.8024 43.9809 36.7454 43.9618 36.6884 43.9045C36.6503 43.8472 36.6123 43.7899 36.6123 43.7326V40.9822L35.1676 43.6371C35.1296 43.7135 35.0535 43.7899 34.9585 43.8472C34.8634 43.9045 34.7874 43.9427 34.6924 43.9427H33.5328C33.4567 43.9427 33.3997 43.9236 33.3427 43.8663C33.3047 43.8281 33.2856 43.7517 33.2856 43.6944Z" fill="white"/>
</svg>
