<svg width="97" height="14" viewBox="0 0 97 14" fill="none" xmlns="http://www.w3.org/2000/svg">
<path fill-rule="evenodd" clip-rule="evenodd" d="M53.1293 6.46665C53.1293 6.46665 52.1611 5.87351 51.6165 5.69557C51.6165 5.69557 49.8011 4.86518 49.4381 4.5093C49.4381 4.5093 48.7119 3.85685 49.1355 3.08577C49.1355 3.08577 49.317 2.61127 50.0432 2.61127C50.0432 2.61127 51.0114 2.67058 51.0114 3.44166V4.56861H54.4605V2.96715C54.4605 2.96715 54.7025 0.298044 50.3457 0.179417C50.3457 0.179417 46.8966 -0.0578388 45.9284 1.78088C45.9284 1.78088 45.5653 2.19607 45.5653 3.56028V4.56861C45.5653 4.56861 45.5048 5.75489 46.1099 6.46665C46.1099 6.46665 46.473 6.94115 47.3202 7.53429C47.3202 7.53429 49.075 8.42399 50.1037 8.95782C50.1037 8.95782 51.1324 9.55094 51.0114 10.5C51.0114 10.5 50.9508 11.449 49.9221 11.3897C49.9221 11.3897 49.0145 11.3304 49.0145 10.4407V9.31369H45.3233V10.9152C45.3233 10.9152 45.2023 13.9995 49.9827 13.9995C49.9827 13.9995 54.521 14.1181 54.7631 10.8558V9.55095C54.7025 9.49164 54.8841 7.53429 53.1293 6.46665Z" fill="white"/>
<path fill-rule="evenodd" clip-rule="evenodd" d="M35.3389 0.475952L34.1892 7.65289H33.9472L32.7975 0.594577H26.9884L26.7463 13.4656H30.135L30.1955 3.73819H30.498L32.3134 13.4656H35.8836L37.6989 3.73819H37.9409L38.0015 13.4656H41.4506L41.0875 0.475952H35.3389Z" fill="white"/>
<path fill-rule="evenodd" clip-rule="evenodd" d="M14.9467 0.535278L12.6472 13.4656H16.3384L17.6697 3.44164H17.9722L19.364 13.4656H23.0552L20.7558 0.535278H14.9467Z" fill="white"/>
<path fill-rule="evenodd" clip-rule="evenodd" d="M92.4617 6.2887V8.18673H93.4299V10.2034C93.4299 11.2117 92.5827 11.2117 92.5827 11.2117C91.4935 11.2117 91.554 10.2627 91.554 10.2627V3.2044C91.554 2.49264 92.5222 2.43332 92.5222 2.43332C93.4299 2.43332 93.4299 3.32302 93.4299 3.32302V4.39067H96.879C97.0001 2.3147 96.5765 1.78087 96.5765 1.78087C95.7293 -0.117163 92.4617 0.00146453 92.4617 0.00146453C87.4393 0.00146453 87.9838 3.79753 87.9838 3.79753V10.6186C88.1049 14.1774 93.0063 13.8215 93.1273 13.8215C95.3057 13.5843 95.9714 12.8725 95.9714 12.8725C96.5765 12.398 96.758 11.8049 96.758 11.8049C96.9395 11.449 97.0001 10.322 97.0001 10.322V6.2887H92.4617Z" fill="white"/>
<path fill-rule="evenodd" clip-rule="evenodd" d="M80.904 8.42397H80.783L77.2128 0.535278H73.0375V13.4656H76.4261L76.2446 5.57693H76.3656L80.0568 13.4656H84.1716V0.535278H80.6619L80.904 8.42397Z" fill="white"/>
<path fill-rule="evenodd" clip-rule="evenodd" d="M64.6264 10.2627C64.6264 10.2627 64.6869 11.3303 63.6582 11.3303C63.6582 11.3303 62.569 11.3896 62.569 10.2627V0.475952H58.8173V10.1441C58.8173 10.1441 58.4543 13.8215 63.7188 13.8215C63.7188 13.8215 68.3176 13.8808 68.3176 10.322V0.475952H64.6264V10.2627Z" fill="white"/>
<path fill-rule="evenodd" clip-rule="evenodd" d="M7.74575 6.46662C7.74575 6.46662 6.77756 5.87348 6.23296 5.69554C6.23296 5.69554 4.41762 4.86515 4.05455 4.50927C4.05455 4.50927 3.32841 3.85681 3.75199 3.08574C3.75199 3.08574 3.93353 2.61124 4.65966 2.61124C4.65966 2.61124 5.62785 2.67055 5.62785 3.44162V4.56858H9.07698V2.96711C9.07698 2.96711 9.31904 0.298009 4.96222 0.179382C4.96222 0.179382 4.65965 0.179382 4.17556 0.179382C4.17556 0.179382 1.51306 0.298013 0.605395 1.72154C0.605395 1.72154 0.242323 2.13673 0.242323 3.50094V4.50927C0.242323 4.50927 0.181826 5.69554 0.78694 6.4073C0.78694 6.4073 1.15001 6.88181 1.99717 7.47494C1.99717 7.47494 3.69147 8.36464 4.78067 8.89846C4.78067 8.89846 5.80937 9.4916 5.68834 10.4406C5.68834 10.4406 5.62784 11.3896 4.59915 11.3303C4.59915 11.3303 3.69148 11.271 3.69148 10.3813V9.25435H0.000281031V10.8558C0.000281031 10.8558 -0.120734 13.9401 4.65966 13.9401C4.65966 13.9401 9.19801 14.0587 9.44006 10.7965V9.4916C9.31903 9.4916 9.50058 7.53426 7.74575 6.46662Z" fill="white"/>
</svg>
