<svg width="34" height="34" viewBox="0 0 34 34" fill="none" xmlns="http://www.w3.org/2000/svg">
<path d="M17 2.83331C9.16587 2.83331 2.83337 9.16581 2.83337 17C2.83337 24.8341 9.16587 31.1666 17 31.1666C24.8342 31.1666 31.1667 24.8341 31.1667 17C31.1667 9.16581 24.8342 2.83331 17 2.83331Z" fill="#F2F2F2"/>
<path d="M23.0845 10.9154C22.5329 10.3638 21.6386 10.3638 21.087 10.9154L17 15.0025L12.9129 10.9154C12.3613 10.3638 11.467 10.3638 10.9154 10.9154C10.3638 11.467 10.3638 12.3613 10.9154 12.9129L15.0025 17L10.9154 21.0871C10.3638 21.6387 10.3638 22.533 10.9154 23.0846C11.467 23.6362 12.3613 23.6362 12.9129 23.0846L17 18.9975L21.087 23.0846C21.6386 23.6362 22.5329 23.6362 23.0845 23.0846C23.6361 22.533 23.6361 21.6387 23.0845 21.0871L18.9975 17L23.0845 12.9129C23.6361 12.3613 23.6361 11.467 23.0845 10.9154Z" fill="#3F4E5D" fill-opacity="0.6"/>
</svg>
