<svg width="150" height="16" viewBox="0 0 150 16" fill="none" xmlns="http://www.w3.org/2000/svg">
<path d="M0.0498047 11.3644V1.10278C0.0498047 0.874738 0.125819 0.722713 0.277844 0.570688C0.429869 0.418663 0.619898 0.342651 0.809928 0.342651H2.36818C2.59622 0.342651 2.74824 0.418663 2.90027 0.570688C3.05229 0.722713 3.12831 0.912744 3.12831 1.10278V9.76819H8.63921V1.14078C8.63921 0.912744 8.71521 0.76072 8.86724 0.608695C9.01926 0.45667 9.2093 0.380657 9.39933 0.380657H10.9576C11.1476 0.380657 11.3376 0.45667 11.4897 0.608695C11.6417 0.76072 11.7177 0.95075 11.7177 1.14078V9.80619H12.5918C12.8199 9.80619 12.9719 9.8822 13.1239 10.0342C13.276 10.1863 13.352 10.3763 13.352 10.5663V11.3264C13.352 11.5545 13.276 11.7065 13.1239 11.8585C12.9719 12.0106 12.7819 12.0866 12.5918 12.0866H0.771926C0.543889 12.0866 0.39186 12.0106 0.239836 11.8585C0.125817 11.7825 0.0498047 11.5925 0.0498047 11.3644Z" fill="white"/>
<path d="M14.4161 11.6685V3.68718C14.4161 3.53515 14.4541 3.42113 14.5682 3.30712C14.6822 3.1931 14.7962 3.15509 14.9102 3.15509H16.6205C16.7725 3.15509 16.8865 3.1931 17.0006 3.30712C17.1146 3.42113 17.1526 3.53515 17.1526 3.68718V9.08405L20.0411 3.76319C20.1171 3.61117 20.2691 3.45914 20.4591 3.34512C20.6491 3.2311 20.8012 3.1931 20.9912 3.1931H23.3096C23.4616 3.1931 23.5756 3.2311 23.6896 3.34512C23.8037 3.45914 23.8417 3.57316 23.8417 3.72518V11.7065C23.8417 11.8585 23.8037 11.9725 23.6896 12.0865C23.5756 12.1626 23.4616 12.2386 23.3096 12.2386H21.5993C21.4473 12.2386 21.3333 12.2006 21.2192 12.0865C21.1432 11.9725 21.0672 11.8585 21.0672 11.7445V6.2716L18.1787 11.5545C18.1027 11.7065 17.9507 11.8585 17.7607 11.9725C17.5707 12.0865 17.4186 12.1626 17.2286 12.1626H14.9102C14.7582 12.1626 14.6442 12.1246 14.5302 12.0105C14.4922 11.9345 14.4161 11.7825 14.4161 11.6685Z" fill="white"/>
<path d="M24.9438 4.63737V3.64921C24.9438 3.49719 24.9819 3.38317 25.0959 3.26915C25.2099 3.15513 25.3239 3.11713 25.4759 3.11713H33.5713C33.7233 3.11713 33.8373 3.15513 33.9513 3.26915C34.0273 3.38317 34.1033 3.49719 34.1033 3.64921V4.63737C34.1033 4.7894 34.0653 4.90342 33.9513 4.97943C33.8753 5.09345 33.7233 5.13145 33.5713 5.13145H30.9488V11.6305C30.9488 11.7825 30.9108 11.8966 30.7968 11.9726C30.6828 12.0866 30.5688 12.1246 30.4167 12.1246H28.5924C28.4404 12.1246 28.3264 12.0866 28.2124 11.9726C28.0984 11.8586 28.0604 11.7445 28.0604 11.6305V5.13145H25.4379C25.2859 5.13145 25.1719 5.09345 25.0579 4.97943C25.0199 4.90342 24.9438 4.7894 24.9438 4.63737Z" fill="white"/>
<path d="M35.2435 14.405V3.6492C35.2435 3.49718 35.2815 3.38316 35.3956 3.26914C35.5096 3.15512 35.6236 3.11711 35.7376 3.11711H37.3339C37.4859 3.11711 37.5999 3.15512 37.6759 3.26914C37.79 3.38316 37.828 3.49718 37.828 3.6492V3.87724C38.7021 3.26914 39.6903 2.96509 40.8304 2.96509C41.9706 2.96509 42.9208 3.38316 43.6809 4.18129C44.441 4.97942 44.8211 6.15761 44.8211 7.63985C44.8211 9.12209 44.441 10.3003 43.6429 11.0984C42.8448 11.8965 41.7806 12.3146 40.4124 12.3146C39.7283 12.3146 38.9301 12.1626 38.056 11.8965V14.405C38.056 14.557 38.018 14.671 37.904 14.785C37.7899 14.899 37.6759 14.937 37.5619 14.937H35.7376C35.5856 14.937 35.4716 14.899 35.3956 14.785C35.2815 14.671 35.2435 14.557 35.2435 14.405ZM38.094 9.99623C38.8161 10.2243 39.3862 10.3383 39.8803 10.3383C40.6404 10.3383 41.1725 10.1103 41.4766 9.69219C41.7806 9.27412 41.9326 8.59 41.9326 7.63985C41.9326 6.6897 41.7806 6.00558 41.4766 5.58752C41.1725 5.16945 40.7164 4.94141 40.1463 4.94141C39.5762 4.94141 38.8541 5.16945 38.094 5.66353V9.99623Z" fill="white"/>
<path d="M47.9755 12.9987L49.0397 13.1507C49.7998 13.1507 50.3699 12.5806 50.674 11.4404C49.7618 11.4404 48.9637 11.1744 48.3556 10.6043C47.7475 10.0342 47.1774 9.04605 46.7593 7.60181L45.5431 3.64917C45.5431 3.61117 45.5051 3.57316 45.5051 3.49715C45.5051 3.42113 45.5431 3.38313 45.6192 3.26911C45.6952 3.1931 45.8092 3.15509 45.9232 3.15509H47.6335C47.7855 3.15509 47.9375 3.1931 48.0896 3.30712C48.2416 3.42113 48.3176 3.53515 48.3556 3.68718L49.4198 7.18375C49.6858 8.01988 49.9519 8.62798 50.2559 8.97004C50.5219 9.31209 50.864 9.46412 51.2441 9.46412L52.8783 3.72518C52.9163 3.57316 52.9923 3.42113 53.1444 3.34512C53.2584 3.2311 53.4104 3.1931 53.5624 3.1931H55.3107C55.4628 3.1931 55.5388 3.2311 55.6148 3.30712C55.6908 3.38313 55.7288 3.45914 55.7288 3.53515C55.7288 3.61116 55.7288 3.64917 55.7288 3.68718L53.5624 11.3644C53.1824 12.7326 52.6883 13.6828 52.1562 14.2909C51.5861 14.861 50.864 15.165 49.9519 15.165C49.0777 15.165 48.4316 15.127 48.0515 15.051C47.6715 14.975 47.4435 14.899 47.3674 14.823C47.2914 14.709 47.2154 14.633 47.2154 14.4809V13.5688C47.2154 13.4168 47.2534 13.3027 47.3674 13.1887C47.4435 13.0747 47.5955 13.0367 47.7475 13.0367H47.9755V12.9987Z" fill="white"/>
<path d="M61.2017 12.3146C59.6815 12.3146 58.4653 11.9345 57.6291 11.1364C56.793 10.3383 56.3369 9.1981 56.3369 7.63985C56.3369 6.1196 56.755 4.94141 57.5911 4.14328C58.4273 3.34515 59.6054 2.96509 61.1257 2.96509C62.6459 2.96509 63.7861 3.19313 64.6223 3.68721C65.4204 4.18129 65.8385 4.8654 65.8385 5.81555C65.8385 5.96758 65.8005 6.08159 65.6864 6.19561C65.5724 6.27163 65.4584 6.34764 65.3064 6.34764H64.0902C63.7101 6.34764 63.4061 6.15761 63.14 5.73954C62.836 5.20745 62.2279 4.97942 61.4298 4.97942C60.5936 4.97942 60.0235 5.20745 59.7195 5.62552C59.3774 6.04359 59.2254 6.7277 59.2254 7.67786C59.2254 8.62801 59.3774 9.31212 59.7195 9.73019C60.0615 10.1483 60.6316 10.3763 61.4677 10.3763C62.3039 10.3763 62.874 10.1103 63.216 9.61617C63.4821 9.1981 63.7861 9.00807 64.1662 9.00807H65.3824C65.5344 9.00807 65.6484 9.04608 65.7625 9.1601C65.8765 9.27412 65.9145 9.38813 65.9145 9.50215C65.9145 10.4523 65.4964 11.1744 64.6983 11.6305C63.9001 12.0866 62.722 12.3146 61.2017 12.3146Z" fill="white"/>
<path d="M73.3257 11.3645V1.1408C73.3257 0.912763 73.4017 0.760739 73.5537 0.608714C73.7057 0.45669 73.8958 0.380676 74.0858 0.380676H84.7655C84.9936 0.380676 85.1456 0.45669 85.2976 0.608714C85.4497 0.760739 85.5257 0.950769 85.5257 1.1408V11.3645C85.5257 11.5925 85.4497 11.7445 85.2976 11.8966C85.1456 12.0486 84.9556 12.1246 84.7275 12.1246H83.2073C82.9793 12.1246 82.8272 12.0486 82.6752 11.8966C82.5232 11.7445 82.4472 11.5545 82.4472 11.3645V2.69905H76.4422V11.3645C76.4422 11.5925 76.3662 11.7445 76.2142 11.8966C76.0621 12.0486 75.8721 12.1246 75.6821 12.1246H74.1238C73.8958 12.1246 73.7438 12.0486 73.5917 11.8966C73.4017 11.7825 73.3257 11.5925 73.3257 11.3645Z" fill="white"/>
<path d="M86.8939 11.5925L88.3762 5.62549C88.7942 3.95322 90.1624 3.15509 92.4808 3.15509H96.3575C96.5095 3.15509 96.6235 3.1931 96.6995 3.30712C96.8135 3.42113 96.8515 3.53515 96.8515 3.68718V11.6685C96.8515 11.8205 96.8135 11.9345 96.6995 12.0105C96.5855 12.1246 96.4715 12.1626 96.3575 12.1626H94.5332C94.3811 12.1626 94.2671 12.1246 94.1911 12.0105C94.0771 11.8965 94.0391 11.7825 94.0391 11.6685V5.13141H92.5188C91.7587 5.13141 91.2646 5.54948 91.0746 6.34761L89.7824 11.5545C89.7444 11.7445 89.6304 11.8965 89.4783 12.0105C89.3263 12.1246 89.1743 12.1626 89.0223 12.1626H87.35C87.198 12.1626 87.0839 12.1246 87.0079 12.0105C86.9319 11.9345 86.8939 11.8585 86.8939 11.7825C86.8939 11.7065 86.8939 11.6685 86.8939 11.5925Z" fill="white"/>
<path d="M98.9039 11.6685V3.68722C98.9039 3.5352 98.9419 3.42118 99.056 3.30716C99.17 3.19314 99.284 3.15514 99.398 3.15514H101.222C101.374 3.15514 101.488 3.19314 101.564 3.30716C101.678 3.42118 101.716 3.5352 101.716 3.68722V6.6137H102.933C103.085 5.43551 103.579 4.52336 104.415 3.91526C105.251 3.30716 106.353 3.00311 107.759 3.00311C109.166 3.00311 110.268 3.38317 111.104 4.1813C111.94 4.97943 112.358 6.11962 112.358 7.63987C112.358 9.16011 111.94 10.3003 111.104 11.0984C110.268 11.8966 109.128 12.2766 107.721 12.2766C106.315 12.2766 105.213 11.9726 104.377 11.3265C103.541 10.6804 103.047 9.76821 102.933 8.55202H101.754V11.6305C101.754 11.7825 101.716 11.8966 101.602 11.9726C101.488 12.0866 101.374 12.1246 101.26 12.1246H99.436C99.284 12.1246 99.17 12.0866 99.094 11.9726C98.9799 11.8966 98.9039 11.7825 98.9039 11.6685ZM109.546 7.63987C109.546 5.77756 108.9 4.82741 107.645 4.82741C106.391 4.82741 105.745 5.77756 105.745 7.63987C105.745 9.50217 106.391 10.4523 107.645 10.4523C108.9 10.4523 109.546 9.50217 109.546 7.63987Z" fill="white"/>
<path d="M113.916 11.6685V3.68722C113.916 3.53519 113.954 3.42118 114.068 3.30716C114.182 3.19314 114.296 3.15513 114.41 3.15513H116.235C116.387 3.15513 116.501 3.19314 116.577 3.30716C116.691 3.42118 116.729 3.53519 116.729 3.68722V10.1863H119.313V3.64921C119.313 3.49719 119.351 3.38317 119.465 3.26915C119.579 3.15513 119.693 3.11713 119.845 3.11713H121.67C121.822 3.11713 121.936 3.15513 122.05 3.26915C122.126 3.38317 122.202 3.49719 122.202 3.64921V10.1483H124.786V3.64921C124.786 3.49719 124.824 3.38317 124.938 3.26915C125.052 3.15513 125.166 3.11713 125.28 3.11713H127.105C127.257 3.11713 127.371 3.15513 127.485 3.26915C127.599 3.38317 127.637 3.49719 127.637 3.64921V11.6305C127.637 11.7825 127.599 11.8966 127.485 11.9726C127.371 12.0866 127.257 12.1246 127.105 12.1246H114.448C114.296 12.1246 114.182 12.0866 114.106 11.9726C113.954 11.8966 113.916 11.7825 113.916 11.6685Z" fill="white"/>
<path d="M138.696 11.7825C138.696 12.0105 138.544 12.1626 138.278 12.1626H136.72C136.188 12.1626 135.77 11.8965 135.466 11.4024L134.44 9.69216C133.984 8.97004 133.337 8.58998 132.501 8.58998V11.6685C132.501 11.8205 132.463 11.9345 132.349 12.0485C132.235 12.1246 132.121 12.2006 132.007 12.2006H130.183C130.031 12.2006 129.917 12.1626 129.803 12.0485C129.727 11.9725 129.651 11.8205 129.651 11.6685V3.68718C129.651 3.53515 129.689 3.42113 129.803 3.30712C129.917 3.1931 130.031 3.15509 130.145 3.15509H131.969C132.121 3.15509 132.235 3.1931 132.349 3.30712C132.425 3.42113 132.501 3.53515 132.501 3.68718V6.72767C133.451 6.72767 134.098 6.34761 134.44 5.62549L135.238 3.95322C135.352 3.72518 135.504 3.53515 135.732 3.38313C135.96 3.2311 136.188 3.15509 136.416 3.15509H137.974C138.24 3.15509 138.392 3.26911 138.392 3.45914C138.392 3.57316 138.354 3.72518 138.278 3.91521L137.214 6.15758C137.024 6.53764 136.796 6.84169 136.492 7.10773C136.188 7.37378 135.846 7.56381 135.466 7.63982C136.15 7.82985 136.72 8.32393 137.214 9.12206L138.62 11.3644C138.62 11.5545 138.696 11.6685 138.696 11.7825Z" fill="white"/>
<path d="M139.875 11.6685V3.68718C139.875 3.53515 139.913 3.42113 140.027 3.30712C140.141 3.1931 140.255 3.15509 140.369 3.15509H142.079C142.231 3.15509 142.345 3.1931 142.459 3.30712C142.573 3.42113 142.611 3.53515 142.611 3.68718V9.08405L145.499 3.76319C145.575 3.61117 145.727 3.45914 145.918 3.34512C146.108 3.2311 146.26 3.1931 146.45 3.1931H148.768C148.92 3.1931 149.034 3.2311 149.148 3.34512C149.262 3.45914 149.3 3.57316 149.3 3.72518V11.7065C149.3 11.8585 149.262 11.9725 149.148 12.0865C149.034 12.1626 148.92 12.2386 148.768 12.2386H147.058C146.906 12.2386 146.792 12.2006 146.678 12.0865C146.602 11.9725 146.526 11.8585 146.526 11.7445V6.2716L143.637 11.5545C143.561 11.7065 143.409 11.8585 143.219 11.9725C143.029 12.0865 142.877 12.1626 142.687 12.1626H140.369C140.217 12.1626 140.103 12.1246 139.989 12.0105C139.913 11.9345 139.875 11.7825 139.875 11.6685Z" fill="white"/>
</svg>
