<svg width="48" height="48" viewBox="0 0 48 48" fill="none" xmlns="http://www.w3.org/2000/svg">
<path d="M43.7452 20.8274C41.2748 20.8274 39.0324 19.8012 37.2461 18.1289C35.4598 16.4567 34.6617 14.0243 34.5477 11.6299C34.5477 11.2118 34.5477 10.7937 34.6237 10.3757C33.5595 10.7937 32.4193 11.0218 31.3552 11.0218C28.8847 11.0218 26.6424 9.99561 24.8561 8.32334C23.0698 6.65107 22.2717 4.21867 22.1577 1.82428C22.1577 1.48223 22.1577 1.14017 22.1957 0.836121C10.2617 1.55824 0.836182 11.4398 0.836182 23.5258C0.836182 36.0679 11.0218 46.2535 23.5639 46.2535C36.1059 46.2535 46.2916 36.0679 46.2916 23.5258C46.2916 22.4996 46.2156 21.4735 46.1016 20.4853C45.3414 20.7134 44.5433 20.8274 43.7452 20.8274ZM23.6019 30.709C19.6492 30.709 16.4567 27.5165 16.4567 23.5638C16.4567 19.6112 19.6492 16.4187 23.6019 16.4187C27.5545 16.4187 30.747 19.6112 30.747 23.5638C30.747 27.5165 27.5545 30.709 23.6019 30.709Z" fill="#FF680A"/>
<path d="M23.6018 47.1657C10.5657 47.1657 0 36.562 0 23.5638C0 11.0978 9.72958 0.760124 22.1576 0C22.4237 0 22.6517 0.0760124 22.8417 0.266043C23.0317 0.456074 23.1078 0.722118 23.0698 0.950155C23.0317 1.2542 23.0317 1.52025 23.0317 1.8243C23.1078 3.23053 23.4878 5.92896 25.4261 7.67725C27.1744 9.27351 29.2268 10.1477 31.3171 10.1477C32.2673 10.1477 33.2934 9.95762 34.2816 9.57756C34.5856 9.46354 34.8897 9.50155 35.1557 9.69158C35.3838 9.88161 35.5358 10.1857 35.4978 10.4897C35.4598 10.8318 35.4218 11.2118 35.4598 11.5919C35.5358 12.9981 35.9158 15.6966 37.8542 17.4448C39.6024 19.0411 41.6548 19.9152 43.7451 19.9152C44.4292 19.9152 45.1513 19.8012 45.8735 19.6112C46.1015 19.5352 46.3675 19.5732 46.5956 19.7252C46.8236 19.8772 46.9376 20.1053 46.9756 20.3333C47.1277 21.3975 47.2037 22.4617 47.2037 23.4878C47.2037 36.562 36.6 47.1657 23.6018 47.1657ZM21.2455 1.8243C10.2237 2.96448 1.74828 12.352 1.74828 23.5258C1.74828 35.5738 11.5539 45.3794 23.6018 45.3794C35.6498 45.3794 45.4554 35.5738 45.4554 23.5258C45.4554 22.8797 45.4174 22.1956 45.3794 21.5495C44.8473 21.6255 44.3152 21.7015 43.7831 21.7015C41.2367 21.7015 38.7663 20.6754 36.676 18.7751C34.8897 17.1408 33.8255 14.5944 33.7115 11.6679C33.7115 11.6299 33.7115 11.6299 33.7115 11.5919C32.9134 11.7819 32.1532 11.8959 31.3551 11.8959C28.8087 11.8959 26.3383 10.8698 24.2479 8.96946C22.4617 7.33519 21.3975 4.78878 21.2835 1.8623C21.2455 1.8623 21.2455 1.8243 21.2455 1.8243ZM23.6018 31.5831C19.1551 31.5831 15.5445 27.9726 15.5445 23.5258C15.5445 19.0791 19.1551 15.4685 23.6018 15.4685C28.0486 15.4685 31.6592 19.0791 31.6592 23.5258C31.6592 27.9726 28.0106 31.5831 23.6018 31.5831ZM23.6018 17.2548C20.1433 17.2548 17.3308 20.0673 17.3308 23.5258C17.3308 26.9844 20.1433 29.7969 23.6018 29.7969C27.0604 29.7969 29.8729 26.9844 29.8729 23.5258C29.8729 20.0673 27.0604 17.2548 23.6018 17.2548Z" fill="#231F20"/>
<mask id="mask0" mask-type="alpha" maskUnits="userSpaceOnUse" x="0" y="0" width="47" height="47">
<path d="M43.7452 20.8274C41.2748 20.8274 39.0324 19.8012 37.2461 18.1289C35.4598 16.4567 34.6617 14.0243 34.5477 11.6299C34.5477 11.2118 34.5477 10.7937 34.6237 10.3757C33.5595 10.7937 32.4193 11.0218 31.3552 11.0218C28.8847 11.0218 26.6424 9.99561 24.8561 8.32334C23.0698 6.65107 22.2717 4.21867 22.1577 1.82428C22.1577 1.48223 22.1577 1.14017 22.1957 0.836121C10.2617 1.55824 0.836182 11.4398 0.836182 23.5258C0.836182 36.0679 11.0218 46.2535 23.5639 46.2535C36.1059 46.2535 46.2916 36.0679 46.2916 23.5258C46.2916 22.4996 46.2156 21.4735 46.1016 20.4853C45.3414 20.7134 44.5433 20.8274 43.7452 20.8274ZM23.6019 30.709C19.6492 30.709 16.4567 27.5165 16.4567 23.5638C16.4567 19.6112 19.6492 16.4187 23.6019 16.4187C27.5545 16.4187 30.747 19.6112 30.747 23.5638C30.747 27.5165 27.5545 30.709 23.6019 30.709Z" fill="#FF680A"/>
</mask>
<g mask="url(#mask0)">
<path d="M49.864 37.1701C49.864 35.3078 48.6098 33.7875 47.0136 33.7875H46.7855C45.2273 33.7875 43.9351 35.3078 43.9351 37.1701C43.9351 39.0324 42.6809 40.5526 41.0846 40.5526H40.9326C39.3743 40.5526 38.0821 39.0324 38.0821 37.1701C38.0821 35.3078 36.8279 33.7875 35.2317 33.7875H35.0036C33.4454 33.7875 32.1532 35.3078 32.1532 37.1701C32.1532 39.0324 30.899 40.5526 29.3027 40.5526H29.1507C27.5924 40.5526 26.3002 39.0324 26.3002 37.1701C26.3002 35.3078 25.046 33.7875 23.4497 33.7875H23.2217C21.6635 33.7875 20.3712 35.3078 20.3712 37.1701C20.3712 39.0324 19.117 40.5526 17.5208 40.5526H17.3688C15.8105 40.5526 14.5183 39.0324 14.5183 37.1701C14.5183 35.3078 13.2641 33.7875 11.6678 33.7875H11.4398C9.88153 33.7875 8.58932 35.3078 8.58932 37.1701C8.58932 39.0324 7.33512 40.5526 5.73886 40.5526H5.58684C4.02858 40.5526 2.73637 39.0324 2.73637 37.1701C2.73637 35.3078 1.48217 33.7875 -0.114093 33.7875H-7.43866e-05C-1.55833 33.7875 -2.85054 35.3078 -2.85054 37.1701C-2.85054 39.0324 -4.10474 40.5526 -5.701 40.5526H-5.85303C-7.41128 40.5526 -8.70349 42.0729 -8.70349 43.9352V54.805C-8.70349 56.6673 -7.44929 58.1875 -5.85303 58.1875H-5.62499C-4.06674 58.1875 -2.77453 56.6673 -2.77453 54.805C-2.77453 52.9427 -1.52032 51.4224 0.0759382 51.4224H0.227962C1.78622 51.4224 3.07843 52.9427 3.07843 54.805C3.07843 56.6673 4.33263 58.1875 5.92889 58.1875H6.08092C7.63917 58.1875 8.93138 56.6673 8.93138 54.805C8.93138 52.9427 10.1856 51.4224 11.7818 51.4224H11.9339C13.4921 51.4224 14.7843 52.9427 14.7843 54.805C14.7843 56.6673 16.0385 58.1875 17.6348 58.1875H17.8628C19.4211 58.1875 20.7133 56.6673 20.7133 54.805C20.7133 52.9427 21.9675 51.4224 23.5638 51.4224C25.122 51.4224 26.4142 52.9427 26.4142 54.805C26.4142 56.6673 27.6684 58.1875 29.2647 58.1875H29.4927C31.051 58.1875 32.3432 56.6673 32.3432 54.805C32.3432 52.9427 33.5974 51.4224 35.1937 51.4224H35.3457C36.9039 51.4224 38.1961 52.9427 38.1961 54.805C38.1961 56.6673 39.4503 58.1875 41.0466 58.1875H41.2746C42.8329 58.1875 44.1251 56.6673 44.1251 54.805C44.1251 52.9427 45.3793 51.4224 46.9756 51.4224H47.1276C48.6858 51.4224 49.9781 52.9427 49.9781 54.805C49.9781 56.6673 51.2323 58.1875 52.8285 58.1875H53.0566C54.6148 58.1875 55.907 56.6673 55.907 54.805V43.9352C55.907 42.0729 54.6528 40.5526 53.0566 40.5526H52.8665C51.1182 40.5526 49.864 39.0324 49.864 37.1701Z" fill="#F9D19D"/>
<path d="M52.8667 58.9476H52.6387C50.6243 58.9476 48.9901 57.0853 48.9901 54.7669C48.9901 53.3607 48.0779 52.2205 46.9757 52.2205H46.8237C45.7215 52.2205 44.8094 53.3607 44.8094 54.7669C44.8094 57.0853 43.1751 58.9476 41.1608 58.9476H40.9327C38.9184 58.9476 37.2842 57.0853 37.2842 54.7669C37.2842 53.3607 36.372 52.2205 35.2698 52.2205H35.1178C34.0156 52.2205 33.1035 53.3607 33.1035 54.7669C33.1035 57.0853 31.4692 58.9476 29.4549 58.9476H29.2648C27.2505 58.9476 25.6163 57.0853 25.6163 54.7669C25.6163 53.3607 24.7041 52.2205 23.6019 52.2205H23.4499C22.3477 52.2205 21.4356 53.3607 21.4356 54.7669C21.4356 57.0853 19.8013 58.9476 17.787 58.9476H17.5589C15.5446 58.9476 13.9103 57.0853 13.9103 54.7669C13.9103 53.3607 12.9982 52.2205 11.896 52.2205H11.744C10.6418 52.2205 9.72967 53.3607 9.72967 54.7669C9.72967 57.0853 8.0954 58.9476 6.08107 58.9476H5.85304C3.83871 58.9476 2.20444 57.0853 2.20444 54.7669C2.20444 53.3607 1.29229 52.2205 0.190113 52.2205H0.0380888C-1.06409 52.2205 -1.97624 53.3607 -1.97624 54.7669C-1.97624 57.0853 -3.61051 58.9476 -5.62483 58.9476H-5.85287C-7.8672 58.9476 -9.50146 57.0853 -9.50146 54.7669V43.8972C-9.50146 41.5788 -7.8672 39.7165 -5.85287 39.7165H-5.66284C-4.56066 39.7165 -3.64851 38.5763 -3.64851 37.1701C-3.64851 34.8517 -2.01425 32.9894 8.29697e-05 32.9894H0.22812C2.24245 32.9894 3.87671 34.8517 3.87671 37.1701C3.87671 38.5763 4.78886 39.7165 5.89104 39.7165H6.04307C7.14525 39.7165 8.05739 38.5763 8.05739 37.1701C8.05739 34.8517 9.69166 32.9894 11.706 32.9894H11.934C13.9484 32.9894 15.5826 34.8517 15.5826 37.1701C15.5826 38.5763 16.4948 39.7165 17.5969 39.7165H17.749C18.8512 39.7165 19.7633 38.5763 19.7633 37.1701C19.7633 34.8517 21.3976 32.9894 23.4119 32.9894H23.6399C25.6543 32.9894 27.2885 34.8517 27.2885 37.1701C27.2885 38.5763 28.2007 39.7165 29.3029 39.7165H29.4549C30.5571 39.7165 31.4692 38.5763 31.4692 37.1701C31.4692 34.8517 33.1035 32.9894 35.1178 32.9894H35.3458C37.3602 32.9894 38.9944 34.8517 38.9944 37.1701C38.9944 38.5763 39.9066 39.7165 41.0088 39.7165H41.1608C42.263 39.7165 43.1751 38.5763 43.1751 37.1701C43.1751 34.8517 44.8094 32.9894 46.8237 32.9894H47.0517C49.0661 32.9894 50.7003 34.8517 50.7003 37.1701C50.7003 38.5763 51.6125 39.7165 52.7147 39.7165H52.9047C54.919 39.7165 56.5533 41.5788 56.5533 43.8972V54.7669C56.5153 57.0853 54.881 58.9476 52.8667 58.9476ZM46.8617 50.5862H47.0137C49.0281 50.5862 50.6623 52.4485 50.6623 54.7669C50.6623 56.1732 51.5745 57.3133 52.6767 57.3133H52.9047C54.0069 57.3133 54.919 56.1732 54.919 54.7669V43.8972C54.919 42.4909 54.0069 41.3507 52.9047 41.3507H52.7147C50.7003 41.3507 49.0661 39.4884 49.0661 37.1701C49.0661 35.7638 48.1539 34.6236 47.0517 34.6236H46.8237C45.7215 34.6236 44.8094 35.7638 44.8094 37.1701C44.8094 39.4884 43.1751 41.3507 41.1608 41.3507H41.0088C38.9944 41.3507 37.3602 39.4884 37.3602 37.1701C37.3602 35.7638 36.448 34.6236 35.3458 34.6236H35.1178C34.0156 34.6236 33.1035 35.7638 33.1035 37.1701C33.1035 39.4884 31.4692 41.3507 29.4549 41.3507H29.3029C27.2885 41.3507 25.6543 39.4884 25.6543 37.1701C25.6543 35.7638 24.7421 34.6236 23.6399 34.6236H23.4119C22.3097 34.6236 21.3976 35.7638 21.3976 37.1701C21.3976 39.4884 19.7633 41.3507 17.749 41.3507H17.5969C15.5826 41.3507 13.9484 39.4884 13.9484 37.1701C13.9484 35.7638 13.0362 34.6236 11.934 34.6236H11.706C10.6038 34.6236 9.69166 35.7638 9.69166 37.1701C9.69166 39.4884 8.0574 41.3507 6.04307 41.3507H5.89104C3.87671 41.3507 2.24245 39.4884 2.24245 37.1701C2.24245 35.7638 1.3303 34.6236 0.22812 34.6236H8.29697e-05C-1.1021 34.6236 -2.01425 35.7638 -2.01425 37.1701C-2.01425 39.4884 -3.64851 41.3507 -5.66284 41.3507H-5.85287C-6.95505 41.3507 -7.8672 42.4909 -7.8672 43.8972V54.7669C-7.8672 56.1732 -6.95505 57.3133 -5.85287 57.3133H-5.62483C-4.52265 57.3133 -3.61051 56.1732 -3.61051 54.7669C-3.61051 52.4485 -1.97624 50.5862 0.0380888 50.5862H0.190113C2.20444 50.5862 3.83871 52.4485 3.83871 54.7669C3.83871 56.1732 4.75086 57.3133 5.85304 57.3133H6.08107C7.18325 57.3133 8.0954 56.1732 8.0954 54.7669C8.0954 52.4485 9.72967 50.5862 11.744 50.5862H11.896C13.9103 50.5862 15.5446 52.4485 15.5446 54.7669C15.5446 56.1732 16.4568 57.3133 17.5589 57.3133H17.787C18.8892 57.3133 19.8013 56.1732 19.8013 54.7669C19.8013 52.4485 21.4356 50.5862 23.4499 50.5862H23.5639C25.5782 50.5862 27.2125 52.4485 27.2125 54.7669C27.2125 56.1732 28.1247 57.3133 29.2268 57.3133H29.4549C30.5571 57.3133 31.4692 56.1732 31.4692 54.7669C31.4692 52.4485 33.1035 50.5862 35.1178 50.5862H35.2698C37.2842 50.5862 38.9184 52.4485 38.9184 54.7669C38.9184 56.1732 39.8306 57.3133 40.9327 57.3133H41.1608C42.263 57.3133 43.1751 56.1732 43.1751 54.7669C43.2131 52.4866 44.8474 50.5862 46.8617 50.5862Z" fill="#231F20"/>
</g>
<path d="M6.65111 27.2885C6.04301 27.4785 5.3589 27.1744 5.16887 26.5283L4.1807 23.6019C3.99067 22.9938 4.29472 22.3096 4.94083 22.1196C5.54893 21.9296 6.23304 22.2336 6.42307 22.8797L7.41123 25.8062C7.60126 26.3763 7.25921 27.0604 6.65111 27.2885Z" fill="white"/>
<path d="M8.77948 15.8486C9.12154 15.2785 9.84366 15.0884 10.4137 15.4305L13.0742 16.9887C13.6443 17.3308 13.8343 18.0529 13.4923 18.623C13.1502 19.1931 12.4281 19.3831 11.858 19.0411L9.19755 17.4828C8.62746 17.1408 8.43743 16.4186 8.77948 15.8486Z" fill="white"/>
<path d="M13.9863 10.4137C13.3782 10.1857 13.0741 9.50157 13.3022 8.89347L14.3663 6.005C14.5944 5.3969 15.2785 5.09285 15.8866 5.32089C16.4947 5.54893 16.7987 6.23304 16.5707 6.84114L15.5065 9.72961C15.2785 10.3377 14.5944 10.6418 13.9863 10.4137Z" fill="white"/>
<path d="M19.0412 11.2878C19.0031 10.6417 19.4592 10.0716 20.1053 9.99561L23.1838 9.72957C23.8299 9.69156 24.4 10.1476 24.476 10.7937C24.514 11.4398 24.058 12.0099 23.4119 12.0859L20.3334 12.352C19.6873 12.428 19.1172 11.9339 19.0412 11.2878Z" fill="white"/>
<path d="M10.3378 29.2647C10.4138 28.6186 10.9839 28.1626 11.63 28.2006L14.7085 28.5426C15.3546 28.6186 15.8107 29.1887 15.7727 29.8348C15.6967 30.4809 15.1266 30.937 14.4805 30.899L11.402 30.557C10.7559 30.4809 10.2618 29.9109 10.3378 29.2647Z" fill="white"/>
<path d="M33.9016 13.4542C33.9016 13.4162 33.8636 13.3782 33.8636 13.3021C33.8255 13.0741 33.7875 12.8841 33.7495 12.656C33.7495 12.58 33.7495 12.504 33.7495 12.39C33.4455 12.0859 32.9514 11.9339 32.4953 12.0859C31.8872 12.314 31.5452 12.9601 31.7732 13.6062L32.7994 16.5327C33.0274 17.1408 33.6735 17.4828 34.3196 17.2548C34.6237 17.1408 34.8517 16.9127 35.0037 16.6467C34.4336 15.7345 34.1676 14.7084 33.9776 13.6822C33.9016 13.5682 33.9016 13.5302 33.9016 13.4542Z" fill="white"/>
<path d="M36.904 25.7682C37.3981 25.3501 38.1202 25.3881 38.5763 25.8442L40.6286 28.1246C41.0467 28.6186 41.0087 29.3408 40.5526 29.7968C40.0585 30.2149 39.3364 30.1769 38.8803 29.7208L36.828 27.4405C36.3719 26.9844 36.4099 26.2243 36.904 25.7682Z" fill="white"/>
<path d="M31.8872 29.3408C32.4573 29.6828 32.6093 30.4049 32.3052 30.975L30.709 33.5975C30.3669 34.1675 29.6448 34.3196 29.0747 34.0155C28.5046 33.6735 28.3526 32.9513 28.6566 32.3813L30.2529 29.7588C30.595 29.1887 31.3171 28.9987 31.8872 29.3408Z" fill="white"/>
<path d="M45.3422 20.6762C45.4562 21.6263 45.5322 22.5765 45.5322 23.5646C45.5322 35.6506 35.6886 45.4942 23.6027 45.4942C11.5167 45.4942 1.67308 35.6506 1.67308 23.5646C1.67308 11.9728 10.7186 2.43321 22.1584 1.67308C22.1584 1.10299 22.1964 0.570905 22.3104 0.0388184C9.92043 0.684924 0.0388184 10.9846 0.0388184 23.5266C0.0388184 36.5248 10.6045 47.0525 23.5646 47.0525C36.5628 47.0905 47.1285 36.5248 47.1285 23.5266C47.1285 22.3865 47.0525 21.2843 46.9004 20.2201C46.3684 20.4101 45.8743 20.5622 45.3422 20.6762Z" fill="#231F20"/>
<path d="M15.6206 23.5258C15.6206 27.9345 19.1932 31.5071 23.6019 31.5071C28.0106 31.5071 31.5832 27.9345 31.5832 23.5258C31.5832 19.1171 28.0106 15.5445 23.6019 15.5445C19.1932 15.5825 15.6206 19.1551 15.6206 23.5258ZM23.6019 17.1788C27.0985 17.1788 29.9489 20.0292 29.9489 23.5258C29.9489 27.0224 27.0985 29.8728 23.6019 29.8728C20.1053 29.8728 17.2549 27.0224 17.2549 23.5258C17.2549 20.0292 20.0673 17.1788 23.6019 17.1788Z" fill="#231F20"/>
</svg>
