<svg width="253" height="45" viewBox="0 0 253 45" fill="none" xmlns="http://www.w3.org/2000/svg">
<path d="M17.7447 33.4425C15.2076 33.4425 12.9066 33 10.8415 32.115C8.80597 31.23 7.05068 30.0352 5.57564 28.5306C4.1006 26.9966 2.96482 25.2266 2.1683 23.2205C1.37178 21.2145 0.973525 19.0904 0.973525 16.8483C0.973525 14.5473 1.38653 12.3937 2.21256 10.3877C3.03858 8.35213 4.17436 6.59683 5.61989 5.1218C7.09493 3.61726 8.83547 2.43723 10.8415 1.58171C12.8771 0.696686 15.0896 0.254175 17.4792 0.254175C19.1607 0.254175 20.739 0.46068 22.2141 0.873691C23.6891 1.2867 25.0461 1.86197 26.2852 2.59948C27.5537 3.3075 28.6747 4.17777 29.6482 5.2103C30.6513 6.21332 31.492 7.3196 32.1706 8.52913L26.8604 11.7152C25.8574 9.85667 24.5741 8.45538 23.0106 7.51136C21.4765 6.56733 19.6475 6.09532 17.5234 6.09532C16.0189 6.09532 14.6176 6.39033 13.3196 6.98035C12.0511 7.54086 10.93 8.30788 9.9565 9.2814C9.01248 10.2549 8.27496 11.3907 7.74395 12.6887C7.21293 13.9868 6.94743 15.3733 6.94743 16.8483C6.94743 18.3529 7.21293 19.7542 7.74395 21.0522C8.27496 22.3502 9.01248 23.486 9.9565 24.4595C10.93 25.4331 12.0806 26.2001 13.4081 26.7606C14.7356 27.3211 16.1812 27.6014 17.7447 27.6014C20.1638 27.6014 22.1698 26.9671 23.7628 25.6986C25.3854 24.43 26.4917 22.7337 27.0817 20.6097H16.7712V14.857H33.5423V17.2466C33.5423 19.4297 33.1736 21.5095 32.4361 23.486C31.6985 25.4331 30.6365 27.1441 29.25 28.6191C27.893 30.0942 26.2409 31.2742 24.2939 32.1592C22.3468 33.0148 20.1638 33.4425 17.7447 33.4425ZM48.5895 33.531C47.0259 33.531 45.4771 33.236 43.9431 32.646C42.4385 32.0265 41.0815 31.1415 39.872 29.9909C38.6625 28.8404 37.6889 27.4391 36.9514 25.7871C36.2139 24.1055 35.8451 22.2027 35.8451 20.0787C35.8451 17.9251 36.1991 16.0223 36.9072 14.3703C37.6447 12.6887 38.6035 11.2727 39.7835 10.1222C40.993 8.97164 42.3648 8.10137 43.8988 7.51136C45.4329 6.89184 47.0259 6.58208 48.678 6.58208C50.389 6.58208 51.9673 6.90659 53.4128 7.55561C54.8584 8.20462 56.0531 9.08965 56.9972 10.2107V7.1131H62.9711V33H56.9972V29.6369C56.0531 30.8464 54.8436 31.8052 53.3686 32.5132C51.8935 33.1918 50.3005 33.531 48.5895 33.531ZM49.563 28.0439C50.6545 28.0439 51.6723 27.8374 52.6163 27.4244C53.5898 27.0113 54.4158 26.4361 55.0944 25.6986C55.7729 24.961 56.3039 24.1055 56.6874 23.132C57.1004 22.1585 57.3069 21.1112 57.3069 19.9902C57.3069 18.8986 57.1004 17.8661 56.6874 16.8926C56.3039 15.9191 55.7729 15.0783 55.0944 14.3703C54.4158 13.6328 53.5898 13.0575 52.6163 12.6445C51.6723 12.2315 50.6545 12.025 49.563 12.025C48.442 12.025 47.4094 12.2315 46.4654 12.6445C45.5214 13.0575 44.6954 13.618 43.9873 14.326C43.2793 15.034 42.7188 15.8748 42.3058 16.8483C41.9223 17.8219 41.7305 18.8691 41.7305 19.9902C41.7305 21.1112 41.9223 22.1732 42.3058 23.1763C42.7188 24.1498 43.2793 25.0053 43.9873 25.7428C44.6954 26.4508 45.5214 27.0113 46.4654 27.4244C47.4094 27.8374 48.442 28.0439 49.563 28.0439ZM66.3739 0.254175H72.3921V33H66.3739V0.254175ZM87.7413 33.531C86.1778 33.531 84.629 33.236 83.095 32.646C81.5904 32.0265 80.2334 31.1415 79.0239 29.9909C77.8143 28.8404 76.8408 27.4391 76.1033 25.7871C75.3658 24.1055 74.997 22.2027 74.997 20.0787C74.997 17.9251 75.351 16.0223 76.059 14.3703C76.7965 12.6887 77.7553 11.2727 78.9353 10.1222C80.1449 8.97164 81.5167 8.10137 83.0507 7.51136C84.5847 6.89184 86.1778 6.58208 87.8298 6.58208C89.5409 6.58208 91.1192 6.90659 92.5647 7.55561C94.0102 8.20462 95.205 9.08965 96.149 10.2107V7.1131H102.123V33H96.149V29.6369C95.205 30.8464 93.9955 31.8052 92.5204 32.5132C91.0454 33.1918 89.4524 33.531 87.7413 33.531ZM88.7148 28.0439C89.8064 28.0439 90.8241 27.8374 91.7682 27.4244C92.7417 27.0113 93.5677 26.4361 94.2462 25.6986C94.9248 24.961 95.4558 24.1055 95.8393 23.132C96.2523 22.1585 96.4588 21.1112 96.4588 19.9902C96.4588 18.8986 96.2523 17.8661 95.8393 16.8926C95.4558 15.9191 94.9248 15.0783 94.2462 14.3703C93.5677 13.6328 92.7417 13.0575 91.7682 12.6445C90.8241 12.2315 89.8064 12.025 88.7148 12.025C87.5938 12.025 86.5613 12.2315 85.6173 12.6445C84.6732 13.0575 83.8472 13.618 83.1392 14.326C82.4312 15.034 81.8707 15.8748 81.4577 16.8483C81.0742 17.8219 80.8824 18.8691 80.8824 19.9902C80.8824 21.1112 81.0742 22.1732 81.4577 23.1763C81.8707 24.1498 82.4312 25.0053 83.1392 25.7428C83.8472 26.4508 84.6732 27.0113 85.6173 27.4244C86.5613 27.8374 87.5938 28.0439 88.7148 28.0439ZM113.324 19.8132L103.943 7.1131H111.245L117.13 15.3438L122.971 7.1131H130.051L120.759 19.9017L130.671 33H123.369L117.041 24.371L110.891 33H103.589L113.324 19.8132ZM141.435 31.7167L130.815 7.1131H137.187L144.4 24.548L151.215 7.1131H157.498L142.055 44.9478H135.992L141.435 31.7167ZM181.495 33.4425C178.574 33.4425 176.096 32.8967 174.061 31.8052C172.055 30.6842 170.329 29.2977 168.883 27.6456L174.37 23.309C175.196 24.725 176.214 25.8166 177.424 26.5836C178.633 27.3211 179.976 27.6899 181.451 27.6899C182.247 27.6899 182.94 27.5719 183.53 27.3359C184.15 27.0999 184.666 26.7901 185.079 26.4066C185.522 25.9936 185.846 25.5216 186.053 24.9905C186.259 24.4595 186.363 23.9138 186.363 23.3533C186.363 22.6747 186.171 22.0995 185.787 21.6275C185.404 21.1555 184.902 20.7572 184.283 20.4327C183.663 20.0787 182.94 19.7689 182.114 19.5034C181.318 19.2379 180.492 18.9724 179.636 18.7069C178.545 18.3529 177.453 17.9694 176.362 17.5564C175.27 17.1434 174.282 16.5976 173.397 15.9191C172.541 15.2111 171.833 14.3555 171.273 13.3525C170.742 12.32 170.476 11.0367 170.476 9.50266C170.476 8.20462 170.742 6.99509 171.273 5.87407C171.804 4.75304 172.541 3.77951 173.485 2.95349C174.459 2.09797 175.595 1.4342 176.893 0.962192C178.191 0.490181 179.622 0.254175 181.185 0.254175C182.483 0.254175 183.648 0.372178 184.681 0.608182C185.743 0.844189 186.702 1.1687 187.557 1.58171C188.442 1.99472 189.239 2.49623 189.947 3.08624C190.684 3.64676 191.378 4.26628 192.027 4.94479L187.071 8.70614C185.684 6.64109 183.737 5.60856 181.229 5.60856C179.754 5.60856 178.633 5.96257 177.866 6.67059C177.099 7.3786 176.716 8.24888 176.716 9.2814C176.716 9.93042 176.893 10.4762 177.247 10.9187C177.601 11.3612 178.073 11.7595 178.663 12.1135C179.282 12.438 179.99 12.733 180.787 12.9985C181.583 13.264 182.424 13.5443 183.309 13.8393C184.401 14.1933 185.492 14.6063 186.584 15.0783C187.705 15.5208 188.708 16.1108 189.593 16.8483C190.507 17.5564 191.245 18.4414 191.805 19.5034C192.366 20.5654 192.646 21.8635 192.646 23.3975C192.646 24.666 192.395 25.9051 191.894 27.1146C191.392 28.3241 190.67 29.4009 189.726 30.3449C188.782 31.2595 187.616 32.0117 186.23 32.6017C184.843 33.1623 183.265 33.4425 181.495 33.4425ZM199.172 33V6.31658H195.234V0.696686H205.19V33H199.172ZM221.3 27.4686C222.923 27.4686 224.162 27.0113 225.017 26.0968C225.873 25.1528 226.301 24.017 226.301 22.6895V11.2285C226.301 9.69441 225.873 8.47013 225.017 7.55561C224.191 6.64109 222.982 6.18382 221.389 6.18382C219.766 6.18382 218.527 6.67059 217.672 7.64411C216.816 8.61764 216.388 9.81242 216.388 11.2285V22.6452C216.388 24.0613 216.801 25.2266 217.627 26.1411C218.453 27.0261 219.678 27.4686 221.3 27.4686ZM221.344 33.4425C219.574 33.4425 217.996 33.1918 216.61 32.6902C215.253 32.1592 214.102 31.4365 213.158 30.5219C212.243 29.5779 211.55 28.4716 211.078 27.2031C210.606 25.9051 210.37 24.4743 210.37 22.9107V11.0514C210.37 9.51741 210.636 8.10137 211.167 6.80334C211.698 5.47581 212.45 4.32528 213.423 3.35175C214.397 2.37823 215.548 1.62596 216.875 1.09495C218.232 0.534432 219.722 0.254175 221.344 0.254175C223.026 0.254175 224.531 0.534432 225.858 1.09495C227.215 1.65546 228.366 2.42248 229.31 3.396C230.283 4.36953 231.021 5.52006 231.522 6.84759C232.053 8.14562 232.319 9.53216 232.319 11.0072V22.9107C232.319 24.5038 232.068 25.9493 231.566 27.2474C231.065 28.5159 230.342 29.6222 229.398 30.5662C228.484 31.4807 227.333 32.1887 225.947 32.6902C224.59 33.1918 223.055 33.4425 221.344 33.4425ZM235.942 14.326H241.651V8.70614H246.651V14.326H252.315V19.4149H246.651V25.0791H241.651V19.4149H235.942V14.326Z" fill="white"/>
</svg>
