<svg width="200" height="26" viewBox="0 0 200 26" fill="none" xmlns="http://www.w3.org/2000/svg">
<path d="M0.86682 0.453301H10.1186C11.9488 0.453301 13.4404 0.865099 14.5934 1.6887C15.7648 2.49399 16.3504 3.72023 16.3504 5.36743C16.3504 6.28254 16.1125 7.09698 15.6367 7.81077C15.1608 8.50625 14.5111 9.03701 13.6875 9.40305C16.0668 10.0802 17.2564 11.6725 17.2564 14.1799C17.2564 16.0284 16.6341 17.4652 15.3896 18.4901C14.145 19.4967 12.5619 20 10.6402 20H0.86682V0.453301ZM5.03971 3.77514V8.35983H8.93807C11.0977 8.35983 12.1775 7.60029 12.1775 6.08121C12.1775 5.18441 11.8847 4.58044 11.299 4.2693C10.7134 3.93986 9.92639 3.77514 8.93807 3.77514H5.03971ZM5.03971 11.2699V16.5958H9.34987C10.4663 16.5958 11.3448 16.4128 11.9854 16.0467C12.6443 15.6807 12.9737 14.9761 12.9737 13.9328C12.9737 12.8713 12.626 12.1667 11.9305 11.8189C11.2533 11.4529 10.3199 11.2699 9.13024 11.2699H5.03971ZM33.5115 5.83413H37.3824V20H33.5115V5.83413ZM31.727 15.333C31.727 16.852 31.2329 18.0142 30.2446 18.8195C29.2745 19.6065 27.9842 20 26.3737 20H19.6202V5.83413H23.4636V10.6934H26.5384C28.0392 10.6934 29.2745 11.096 30.2446 11.9013C31.2329 12.7066 31.727 13.8505 31.727 15.333ZM23.4636 13.3289V17.3096H25.4402C27.0142 17.3096 27.8012 16.6507 27.8012 15.333C27.8012 14.6741 27.5816 14.1799 27.1423 13.8505C26.7031 13.5027 26.1266 13.3289 25.4128 13.3289H23.4636ZM53.4209 20H49.6872V10.4188L44.6358 20H40.2159V5.83413H43.9495V15.4153L49.0009 5.83413H53.4209V20ZM67.1962 8.82654H60.3603V20H56.4894V5.83413H67.1962V8.82654ZM72.553 5.83413V7.59114C73.5779 6.16357 75.0421 5.44979 76.9455 5.44979C78.8489 5.44979 80.3772 6.13612 81.5302 7.50878C82.6832 8.88144 83.2598 10.7117 83.2598 12.9994C83.2598 15.214 82.6924 16.9984 81.5577 18.3528C80.4412 19.6889 78.9587 20.3569 77.1102 20.3569C75.2068 20.3569 73.7518 19.6523 72.7452 18.243V25.0239H68.8743V5.83413H72.553ZM75.9846 8.57946C74.9231 8.57946 74.0904 8.9638 73.4864 9.73249C72.9007 10.5012 72.6079 11.5719 72.6079 12.9445C72.6079 14.3172 72.9099 15.3879 73.5139 16.1565C74.1178 16.9252 74.9506 17.3096 76.0121 17.3096C77.0553 17.3096 77.8698 16.9252 78.4554 16.1565C79.0594 15.3879 79.3614 14.3355 79.3614 12.9994C79.3614 11.6268 79.0594 10.5469 78.4554 9.75995C77.8515 8.97295 77.0279 8.57946 75.9846 8.57946ZM98.8347 20H94.8815C94.7534 19.634 94.6618 19.1764 94.6069 18.6273C93.4173 19.817 91.8891 20.4118 90.0223 20.4118C88.4483 20.4118 87.2129 20.0366 86.3161 19.2862C85.4193 18.5175 84.9709 17.4652 84.9709 16.1291C84.9709 15.5251 85.0441 14.9944 85.1905 14.5368C85.3552 14.0793 85.6114 13.6949 85.9592 13.3838C86.3252 13.0726 86.6638 12.8164 86.9749 12.6151C87.3044 12.4138 87.7528 12.249 88.3202 12.1209C88.8875 11.9928 89.3451 11.9013 89.6928 11.8464C90.0406 11.7732 90.5256 11.7 91.1478 11.6268C92.5205 11.4437 93.4356 11.2516 93.8932 11.0502C94.369 10.8489 94.6069 10.4737 94.6069 9.92466C94.6069 8.66182 93.7559 8.03039 92.0538 8.03039C91.157 8.03039 90.4981 8.19511 90.0772 8.52455C89.6562 8.83569 89.3817 9.3939 89.2536 10.1992H85.6023C85.8219 7.01462 88.009 5.42234 92.1636 5.42234C96.2816 5.42234 98.3406 6.95972 98.3406 10.0345V16.1565C98.3406 17.9502 98.5053 19.2313 98.8347 20ZM94.5795 13.1092C94.1219 13.3838 93.2068 13.6309 91.8342 13.8505C90.6811 14.0335 89.9307 14.2623 89.583 14.5368C89.1804 14.8845 88.979 15.3604 88.979 15.9644C88.979 16.55 89.162 17.0167 89.5281 17.3645C89.9124 17.6939 90.4432 17.8586 91.1204 17.8586C92.1636 17.8586 92.9964 17.5841 93.6186 17.0351C94.2592 16.4677 94.5795 15.6898 94.5795 14.7015V13.1092ZM111.003 0.453301H112.54C112.54 3.08881 111.048 4.40657 108.065 4.40657C105.082 4.40657 103.59 3.08881 103.59 0.453301H105.128C105.365 1.66124 106.345 2.26521 108.065 2.26521C109.785 2.26521 110.765 1.66124 111.003 0.453301ZM114.681 20H110.948V10.4188L105.896 20H101.476V5.83413H105.21V15.4153L110.261 5.83413H114.681V20ZM134.725 0.782739V20H130.579V7.50878H125.912V4.62619H126.406C129.316 4.62619 131.018 3.34504 131.513 0.782739H134.725ZM161.491 20H157.758V10.4188L152.706 20H148.286V5.83413H152.02V15.4153L157.071 5.83413H161.491V20ZM176.886 15.7997C176.886 17.3004 176.291 18.4443 175.102 19.2313C173.912 20.0183 172.301 20.4118 170.27 20.4118C168.348 20.4118 166.765 20 165.521 19.1764C164.276 18.3528 163.645 17.09 163.626 15.3879H167.332C167.479 16.9618 168.486 17.7488 170.352 17.7488C171.194 17.7488 171.826 17.575 172.247 17.2272C172.668 16.8795 172.878 16.4219 172.878 15.8546C172.878 14.5368 172.064 13.8779 170.435 13.8779H168.925V11.4346H169.941C170.819 11.4346 171.487 11.2973 171.945 11.0228C172.402 10.7483 172.631 10.2724 172.631 9.59523C172.631 9.13767 172.439 8.76248 172.054 8.46964C171.67 8.15851 171.121 8.00294 170.407 8.00294C169.584 8.00294 168.952 8.14936 168.513 8.44219C168.092 8.73502 167.827 9.23833 167.717 9.95212H164.093C164.148 8.41474 164.779 7.28 165.987 6.54792C167.195 5.79753 168.696 5.42234 170.49 5.42234C174.443 5.42234 176.419 6.69433 176.419 9.23833C176.419 10.007 176.154 10.6934 175.623 11.2973C175.093 11.9013 174.507 12.2582 173.866 12.368V12.4229C174.708 12.5327 175.422 12.8439 176.008 13.3563C176.593 13.8688 176.886 14.6832 176.886 15.7997ZM198.915 0.94746V4.2693H191.036L190.295 8.44219C191.192 7.54538 192.372 7.09698 193.837 7.09698C195.685 7.09698 197.168 7.6735 198.284 8.82654C199.4 9.97957 199.959 11.4987 199.959 13.3838C199.959 15.397 199.282 17.0534 197.927 18.3528C196.573 19.6523 194.834 20.302 192.711 20.302C190.698 20.302 189.051 19.7895 187.769 18.7646C186.507 17.7214 185.82 16.2389 185.71 14.3172H189.554C189.645 15.1591 189.975 15.8454 190.542 16.3762C191.128 16.8886 191.851 17.1449 192.711 17.1449C193.681 17.1449 194.477 16.8063 195.099 16.1291C195.722 15.4336 196.033 14.546 196.033 13.4661C196.033 12.3863 195.731 11.5261 195.127 10.8855C194.523 10.245 193.709 9.92466 192.684 9.92466C191.457 9.92466 190.496 10.4554 189.801 11.517H186.314L188.181 0.94746H198.915Z" fill="white"/>
</svg>
